# xmcd
#
# Track frame offsets: 
#        150
#        20678
#        43652
#        66469
#        86062
#        109488
#        126058
#        147917
#        163759
#        182572
#        205260
#        224063
#        246765
#        268283
#        288059
#
# Disc length: 4094 seconds
#
# Revision: 0
# Processed by: cddbd v1.5.2PL0 Copyright (c) Steve Scherf et al.
# Submitted via: ExactAudioCopy v1.0b3
#
DISCID=f10ffc0f
DTITLE=群星 - DTS ES 正品 唱给男人的歌 CD2
DYEAR=2013
DGENRE=DTS ES
TTITLE0=秋风落叶
TTITLE1=没那么简单
TTITLE2=传奇
TTITLE3=你走以后
TTITLE4=你把温柔给了谁
TTITLE5=今生相爱
TTITLE6=爱的天堂
TTITLE7=忘记尘缘忘记你
TTITLE8=长发的女郎
TTITLE9=烟花易冷
TTITLE10=爱在秋天的童话
TTITLE11=为你等待
TTITLE12=我的九寨
TTITLE13=月亮上的姑娘
TTITLE14=我是否也在你心中
EXTD=
EXTT0=
EXTT1=
EXTT2=
EXTT3=
EXTT4=
EXTT5=
EXTT6=
EXTT7=
EXTT8=
EXTT9=
EXTT10=
EXTT11=
EXTT12=
EXTT13=
EXTT14=
PLAYORDER=
